<svg width="1200" height="320" viewBox="0 0 1200 320" fill="none" xmlns="http://www.w3.org/2000/svg">
  <rect width="1200" height="320" rx="28" fill="#F8FAFC"/>
  <rect x="40" y="40" width="1120" height="240" rx="24" fill="url(#bg)"/>

  <rect x="84" y="98" width="220" height="124" rx="18" fill="#111827"/>
  <text x="112" y="138" fill="#F9FAFB" font-family="SF Pro Display, Inter, sans-serif" font-size="22" font-weight="700">Markdown</text>
  <text x="112" y="170" fill="#CBD5E1" font-family="SF Pro Text, Inter, sans-serif" font-size="16">CommonMark + GFM</text>
  <text x="112" y="194" fill="#CBD5E1" font-family="SF Pro Text, Inter, sans-serif" font-size="16">math, tables, images</text>

  <rect x="352" y="84" width="244" height="152" rx="18" fill="#FFFFFF"/>
  <text x="384" y="126" fill="#0F172A" font-family="SF Pro Display, Inter, sans-serif" font-size="22" font-weight="700">Rust Pipeline</text>
  <text x="384" y="158" fill="#475569" font-family="SF Pro Text, Inter, sans-serif" font-size="16">parser → AST → math → image</text>
  <text x="384" y="182" fill="#475569" font-family="SF Pro Text, Inter, sans-serif" font-size="16">highlighting → DOCX emitter</text>
  <text x="384" y="206" fill="#475569" font-family="SF Pro Text, Inter, sans-serif" font-size="16">preview renderer</text>

  <rect x="644" y="84" width="224" height="152" rx="18" fill="#0F172A"/>
  <text x="676" y="126" fill="#F8FAFC" font-family="SF Pro Display, Inter, sans-serif" font-size="22" font-weight="700">Native .docx</text>
  <text x="676" y="158" fill="#CBD5E1" font-family="SF Pro Text, Inter, sans-serif" font-size="16">editable OMML math</text>
  <text x="676" y="182" fill="#CBD5E1" font-family="SF Pro Text, Inter, sans-serif" font-size="16">styled tables and lists</text>
  <text x="676" y="206" fill="#CBD5E1" font-family="SF Pro Text, Inter, sans-serif" font-size="16">embedded raster + SVG</text>

  <rect x="916" y="98" width="160" height="124" rx="18" fill="#E2E8F0"/>
  <text x="948" y="138" fill="#0F172A" font-family="SF Pro Display, Inter, sans-serif" font-size="22" font-weight="700">Preview</text>
  <text x="948" y="170" fill="#475569" font-family="SF Pro Text, Inter, sans-serif" font-size="16">Svelte + Tauri</text>
  <text x="948" y="194" fill="#475569" font-family="SF Pro Text, Inter, sans-serif" font-size="16">live HTML view</text>

  <path d="M304 160H352" stroke="#94A3B8" stroke-width="8" stroke-linecap="round"/>
  <path d="M596 160H644" stroke="#94A3B8" stroke-width="8" stroke-linecap="round"/>
  <path d="M868 160H916" stroke="#94A3B8" stroke-width="8" stroke-linecap="round"/>
  <circle cx="328" cy="160" r="8" fill="#94A3B8"/>
  <circle cx="620" cy="160" r="8" fill="#94A3B8"/>
  <circle cx="892" cy="160" r="8" fill="#94A3B8"/>

  <defs>
    <linearGradient id="bg" x1="40" y1="40" x2="1160" y2="280" gradientUnits="userSpaceOnUse">
      <stop stop-color="#EEF2FF"/>
      <stop offset="1" stop-color="#E0F2FE"/>
    </linearGradient>
  </defs>
</svg>
